<svg width="24" height="24" viewBox="0 0 24 24" fill="none" xmlns="http://www.w3.org/2000/svg">
<path d="M9.70547 10.2946V20.0001H0V10.2946H9.70547ZM6.58789 18.054H7.75977V16.8821H6.58789V18.054ZM6.58789 13.4122H7.75977V12.2403H6.58789V13.4122ZM4.2668 15.7333H5.43867V14.5614H4.2668V15.7333ZM1.94609 18.054H3.11797V16.8821H1.94609V18.054ZM1.94609 13.4122H3.11797V12.2403H1.94609V13.4122Z" fill="url(#paint0_linear_2326_1296)"/>
<path d="M13.1373 0L20.0002 6.86289L13.1373 13.7258L9.70566 10.2945L6.27441 6.86289L13.1373 0ZM13.1373 10.9738L13.9658 10.1453L13.1373 9.31641L12.3088 10.1453L13.1373 10.9738ZM13.1373 7.69141L13.9658 6.86289L13.1373 6.03437L12.3088 6.86289L13.1373 7.69141ZM13.1373 4.40937L13.9658 3.58047L13.1373 2.75195L12.3088 3.58086L13.1373 4.40937Z" fill="url(#paint1_linear_2326_1296)"/>
<defs>
<linearGradient id="paint0_linear_2326_1296" x1="4.85273" y1="20.0001" x2="4.85273" y2="10.2946" gradientUnits="userSpaceOnUse">
<stop stop-color="#9F2FFF"/>
<stop offset="1" stop-color="#0BB1D3"/>
</linearGradient>
<linearGradient id="paint1_linear_2326_1296" x1="13.1373" y1="13.7258" x2="13.1373" y2="-4.41786e-05" gradientUnits="userSpaceOnUse">
<stop stop-color="#9F2FFF"/>
<stop offset="1" stop-color="#0BB1D3"/>
</linearGradient>
</defs>
</svg>
