<svg width="32" height="32" viewBox="0 0 32 32" fill="none" xmlns="http://www.w3.org/2000/svg">
<path fill-rule="evenodd" clip-rule="evenodd" d="M16 1.6665C23.916 1.6665 30.3333 8.08384 30.3333 15.9998C30.3333 23.9158 23.916 30.3332 16 30.3332C8.08396 30.3332 1.66663 23.9158 1.66663 15.9998C1.66663 8.08384 8.08396 1.6665 16 1.6665ZM21.3733 16.6265L16.7066 11.9598C16.5191 11.7726 16.265 11.6674 16 11.6674C15.735 11.6674 15.4808 11.7726 15.2933 11.9598L10.6266 16.6265C10.5284 16.7181 10.4496 16.8285 10.3949 16.9511C10.3403 17.0738 10.3109 17.2062 10.3085 17.3405C10.3061 17.4747 10.3308 17.6081 10.3811 17.7326C10.4314 17.8572 10.5063 17.9703 10.6012 18.0652C10.6962 18.1602 10.8093 18.235 10.9338 18.2853C11.0583 18.3356 11.1917 18.3603 11.326 18.358C11.4603 18.3556 11.5927 18.3262 11.7153 18.2715C11.838 18.2169 11.9484 18.1381 12.04 18.0398L16 14.0798L19.96 18.0398C20.0515 18.1381 20.1619 18.2169 20.2846 18.2715C20.4072 18.3262 20.5397 18.3556 20.6739 18.358C20.8082 18.3603 20.9416 18.3356 21.0661 18.2853C21.1906 18.235 21.3037 18.1602 21.3987 18.0652C21.4936 17.9703 21.5685 17.8572 21.6188 17.7326C21.6691 17.6081 21.6938 17.4747 21.6914 17.3405C21.689 17.2062 21.6597 17.0738 21.605 16.9511C21.5503 16.8285 21.4715 16.7181 21.3733 16.6265Z" fill="url(#paint0_linear_2291_5421)"/>
<defs>
<linearGradient id="paint0_linear_2291_5421" x1="16" y1="30.3332" x2="16" y2="1.66641" gradientUnits="userSpaceOnUse">
<stop stop-color="#9F2FFF"/>
<stop offset="1" stop-color="#0BB1D3"/>
</linearGradient>
</defs>
</svg>
